PathFileType	4	(X/Y/Z)	C:\Users\°ÂÌØÂü\Desktop\20201223\Trimmed_bx_n_5_501.trc
DataRate	CameraRate	NumFrames	NumMarkers	Units	OrigDataRate	OrigDataStartFrame	OrigNumFrames
50.00	50.00	      7	43	mm	50.00	362	      1445
Frame#	Time	Top.Head			R.Acromium			L.Acromium			Sternum			R.ASIS			L.ASIS			V.Sacral			R.Thigh.Upper			R.Thigh.Front			R.Thigh.Rear			R.Knee.Lat			R.Knee.Med			R.Shank.Upper			R.Shank.Front			R.Shank.Rear			R.Ankle.Lat			R.Midfoot.Lat			R.Toe.Lat			R.Toe.Tip			R.Toe.Med			R.Ankle.Med			R.Midfoot.Sup			R.Heel			L.Thigh.Upper			L.Thigh.Front			L.Thigh.Rear			L.Knee.Lat			L.Knee.Med			L.Shank.Upper			L.Shank.Front			L.Shank.Rear			L.Ankle.Lat			L.Midfoot.Lat			L.Toe.Lat			L.Toe.Tip			L.Toe.Med			L.Ankle.Med			L.Midfoot.Sup			L.Heel			origin1 front left			origin2 front right			origin 3 back right			origin 4 back leftt			
		X1	Y1	Z1	X2	Y2	Z2	X3	Y3	Z3	X4	Y4	Z4	X5	Y5	Z5	X6	Y6	Z6	X7	Y7	Z7	X8	Y8	Z8	X9	Y9	Z9	X10	Y10	Z10	X11	Y11	Z11	X12	Y12	Z12	X13	Y13	Z13	X14	Y14	Z14	X15	Y15	Z15	X16	Y16	Z16	X17	Y17	Z17	X18	Y18	Z18	X19	Y19	Z19	X20	Y20	Z20	X21	Y21	Z21	X22	Y22	Z22	X23	Y23	Z23	X24	Y24	Z24	X25	Y25	Z25	X26	Y26	Z26	X27	Y27	Z27	X28	Y28	Z28	X29	Y29	Z29	X30	Y30	Z30	X31	Y31	Z31	X32	Y32	Z32	X33	Y33	Z33	X34	Y34	Z34	X35	Y35	Z35	X36	Y36	Z36	X37	Y37	Z37	X38	Y38	Z38	X39	Y39	Z39	X40	Y40	Z40	X41	Y41	Z41	X42	Y42	Z42	X43	Y43	Z43	

362	7.220	-116.32803	288.87482	1381.54846	-316.90820	114.30743	1206.57568	-333.57483	436.94833	1186.96838	-510.85107	261.68860	1007.41052	-719.55701	136.29767	985.67200	-702.86011	359.86917	978.52820	-886.37354	256.71924	1084.61206	-794.88446	80.55392	823.11432	-701.99677	141.17357	811.52319	-769.03546	87.37289	713.16211	-771.72272	113.39236	593.60101	-745.13525	220.34436	552.56995	-786.45380	110.65508	524.15363	-707.51331	162.19556	526.34802	-782.07861	102.76968	471.73590	-706.15723	130.43637	209.02132	-624.17175	73.13017	164.16383	-577.51392	49.25663	158.92624	-503.80109	96.60115	159.88190	-544.98981	146.12489	163.39723	-659.82495	207.56638	225.10043	-608.41510	182.73792	174.58218	-735.86627	197.82742	169.31413	-790.39575	446.49026	841.83026	-699.42200	390.98383	809.83142	-783.40369	439.48758	724.21094	-765.18701	413.48828	590.80719	-747.76343	303.18378	559.60278	-769.98889	416.88815	544.59076	-708.00073	360.12836	532.51892	-806.92859	420.10233	469.54199	-689.69873	413.69476	211.39775	-588.02905	463.59058	163.13632	-550.07855	475.36740	157.56659	-490.68420	422.10306	166.02740	-528.69556	384.34491	176.34853	-651.27509	323.85483	212.91087	-596.09290	343.93872	173.97151	-733.00427	338.86642	162.42044	-444.01453	448.54236	146.22208	-450.51428	74.97301	142.94566	-806.27917	82.70905	140.70335	-799.98511	456.34708	144.61897	
363	7.240	-117.20795	288.84961	1382.81567	-317.55484	114.39815	1207.28931	-334.21637	437.05197	1187.77539	-511.06311	261.94449	1007.76648	-719.81818	136.44836	985.69250	-703.03650	360.07510	978.60022	-886.65906	256.91519	1084.48779	-795.08685	80.67792	823.09851	-702.19739	141.31711	811.49384	-769.20166	87.49741	713.15125	-771.83728	113.46500	593.57068	-745.22626	220.39272	552.51465	-786.56152	110.68120	524.15710	-707.62146	162.31076	526.32819	-782.16510	102.84069	471.69290	-706.19910	130.45541	208.99014	-624.17322	73.13315	164.17009	-577.53491	49.27149	158.94624	-503.81784	96.59614	159.88626	-544.97308	146.14830	163.40465	-659.86273	207.59097	225.10168	-608.42548	182.73770	174.58629	-735.87885	197.83107	169.27434	-790.63110	446.63434	841.78070	-699.61426	391.17639	809.81567	-783.62146	439.57516	724.14575	-765.37335	413.59113	590.77484	-747.91321	303.32806	559.56561	-770.16553	417.01782	544.55957	-708.12488	360.20587	532.47198	-807.05768	420.14133	469.48608	-689.76959	413.70084	211.35027	-588.05023	463.60303	163.09961	-550.10126	475.36407	157.56299	-490.69501	422.10327	166.02733	-528.71429	384.36304	176.34605	-651.30750	323.91534	212.93355	-596.12048	343.95477	173.99600	-733.02930	338.89084	162.40367	-444.00290	448.53644	146.21794	-450.51950	74.96982	142.94968	-806.29163	82.70578	140.70789	-799.98883	456.35562	144.62582	
364	7.260	-118.17007	288.85751	1384.25586	-318.25235	114.50455	1208.11829	-334.92664	437.18082	1188.70313	-511.27631	262.19794	1008.19763	-720.06958	136.60100	985.73596	-703.19659	360.27206	978.69659	-886.95764	257.10336	1084.35962	-795.27509	80.80568	823.08466	-702.38800	141.45663	811.46918	-769.36407	87.61314	713.15216	-771.95190	113.53561	593.55084	-745.31317	220.43793	552.45209	-786.67114	110.73273	524.14130	-707.72949	162.42229	526.31348	-782.25177	102.90533	471.65067	-706.24493	130.47638	208.96025	-624.17419	73.13322	164.17618	-577.55853	49.28672	158.96466	-503.83386	96.59277	159.89284	-544.95715	146.16911	163.41115	-659.90186	207.61082	225.09697	-608.43884	182.73822	174.59138	-735.89215	197.83336	169.23444	-790.84912	446.77118	841.73438	-699.79572	391.36462	809.80121	-783.83545	439.65045	724.08691	-765.53986	413.69693	590.73602	-748.05432	303.47635	559.51923	-770.35205	417.15308	544.53217	-708.24982	360.28241	532.42749	-807.19324	420.16840	469.43082	-689.84625	413.70865	211.30403	-588.07184	463.61594	163.05789	-550.12866	475.36380	157.55566	-490.70648	422.10260	166.02831	-528.73248	384.38245	176.34276	-651.34473	323.98352	212.95518	-596.14673	343.97281	174.01840	-733.05487	338.91443	162.38667	-443.99219	448.53119	146.21425	-450.52554	74.96724	142.95183	-806.30682	82.70161	140.71300	-799.99554	456.36615	144.63437	
365	7.280	-119.22415	288.89825	1385.90906	-319.00412	114.62047	1209.08997	-335.70700	437.33582	1189.77429	-511.49042	262.44879	1008.70374	-720.29712	136.75372	985.81250	-703.33020	360.45541	978.82379	-887.26208	257.28323	1084.22839	-795.43701	80.93941	823.07831	-702.55432	141.59262	811.45282	-769.51123	87.72136	713.16772	-772.05658	113.60527	593.54443	-745.38770	220.48151	552.38812	-786.77246	110.81040	524.10852	-707.82782	162.52898	526.30560	-782.33044	102.96368	471.61292	-706.29224	130.49786	208.93602	-624.17505	73.13060	164.18248	-577.58282	49.30261	158.98129	-503.84872	96.59121	159.90109	-544.94397	146.18523	163.41634	-659.94049	207.62634	225.08733	-608.45343	182.73955	174.59676	-735.90546	197.83517	169.19658	-791.03424	446.90161	841.69348	-699.95282	391.54736	809.78906	-784.03381	439.71512	724.03674	-765.68231	413.80121	590.69263	-748.17224	303.62408	559.46881	-770.53796	417.28830	544.50928	-708.36804	360.35934	532.38916	-807.32788	420.18484	469.37997	-689.92523	413.71844	211.26056	-588.09277	463.62842	163.01292	-550.15900	475.36761	157.54482	-490.71704	422.10226	166.03056	-528.74872	384.40210	176.33905	-651.38330	324.05551	212.97563	-596.16980	343.99167	174.03761	-733.07965	338.93488	162.37140	-443.98383	448.52692	146.21187	-450.53192	74.96558	142.95189	-806.32373	82.69727	140.71806	-800.00470	456.37799	144.64412	
366	7.300	-120.38263	288.97141	1387.81604	-319.81305	114.73944	1210.23193	-336.55927	437.51691	1191.01099	-511.70511	262.69693	1009.28442	-720.48755	136.90477	985.93103	-703.42834	360.62146	978.98895	-887.56580	257.45432	1084.09436	-795.56116	81.08083	823.08478	-702.68207	141.72539	811.44830	-769.63116	87.82413	713.19928	-772.14124	113.67495	593.55255	-745.44110	220.52458	552.32861	-786.85431	110.91216	524.06354	-707.90662	162.62938	526.30536	-782.39233	103.01588	471.58295	-706.33777	130.51863	208.92137	-624.17609	73.12591	164.18927	-577.60577	49.31942	158.99619	-503.86194	96.59127	159.91014	-544.93536	146.19475	163.42000	-659.97675	207.63828	225.07379	-608.46698	182.74171	174.60152	-735.91785	197.83759	169.16251	-791.17255	447.02667	841.66052	-700.07300	391.72375	809.78046	-784.20477	439.77109	723.99707	-765.79791	413.89981	590.64771	-748.25336	303.76617	559.42004	-770.71149	417.41714	544.49164	-708.47131	360.43805	532.36090	-807.45374	420.19238	469.33749	-690.00220	413.73010	211.22148	-588.11212	463.63977	162.96683	-550.19025	475.37604	157.53110	-490.72488	422.10364	166.03421	-528.76190	384.42114	176.33542	-651.41925	324.12659	212.99487	-596.18787	344.01031	174.05275	-733.10187	338.95016	162.35948	-443.97897	448.52377	146.21150	-450.53802	74.96495	142.94992	-806.34137	82.69351	140.72247	-800.01550	456.39032	144.65428	
367	7.320	-121.66074	289.07596	1390.01636	-320.68130	114.85504	1211.56982	-337.48544	437.72284	1192.43384	-511.92014	262.94226	1009.93921	-720.62915	137.05261	986.09875	-703.48346	360.76813	979.19916	-887.86273	257.61578	1083.95764	-795.63702	81.23069	823.10834	-702.75854	141.85475	811.45825	-769.71240	87.92393	713.24677	-772.19635	113.74526	593.57501	-745.46484	220.56786	552.27875	-786.90607	111.03338	524.01257	-707.95660	162.72166	526.31232	-782.42902	103.06191	471.56351	-706.37817	130.53795	208.91911	-624.17755	73.12009	164.19659	-577.62561	49.33727	159.00955	-503.87320	96.59239	159.91901	-544.93262	146.19633	163.42209	-660.00867	207.64761	225.05714	-608.47711	182.74474	174.60469	-735.92834	197.84180	169.13332	-791.25281	447.14728	841.63800	-700.14526	391.89313	809.77704	-784.33765	439.81998	723.96930	-765.88489	413.98929	590.60535	-748.28619	303.89728	559.37866	-770.86053	417.53320	544.47955	-708.55109	360.51974	532.34662	-807.56348	420.19257	469.30695	-690.07281	413.74323	211.18828	-588.12915	463.64938	162.92184	-550.22058	475.38910	157.51558	-490.72839	422.10812	166.03931	-528.77124	384.43887	176.33231	-651.44843	324.19159	213.01297	-596.19965	344.02777	174.06325	-733.11993	338.95865	162.35202	-443.97830	448.52188	146.21346	-450.54340	74.96528	142.94627	-806.35852	82.69090	140.72568	-800.02704	456.40219	144.66383	
368	7.340	-123.07571	289.21014	1392.54590	-321.60983	114.96125	1213.12488	-338.48663	437.95114	1194.06079	-512.13525	263.18466	1010.66772	-720.71289	137.19591	986.32007	-703.49011	360.89496	979.46088	-888.14777	257.76636	1083.81738	-795.65576	81.38842	823.15186	-702.77344	141.97964	811.48468	-769.74487	88.02338	713.30823	-772.21381	113.81615	593.60999	-745.45135	220.61139	552.24304	-786.91858	111.16734	523.96265	-707.96997	162.80377	526.32520	-782.43347	103.10142	471.55652	-706.41016	130.55553	208.93053	-624.17944	73.11419	164.20425	-577.64081	49.35608	159.02182	-503.88223	96.59376	159.92667	-544.93634	146.18925	163.42271	-660.03424	207.65538	225.03784	-608.48175	182.74852	174.60542	-735.93597	197.84892	169.10928	-791.26733	447.26346	841.62842	-700.16138	392.05487	809.78070	-784.42371	439.86276	723.95422	-765.94202	414.06708	590.57007	-748.26300	304.01270	559.34943	-770.97430	417.63065	544.47321	-708.59937	360.60510	532.34949	-807.65094	420.18652	469.29111	-690.13287	413.75696	211.16216	-588.14343	463.65698	162.88008	-550.24841	475.40631	157.49950	-490.72629	422.11682	166.04578	-528.77631	384.45490	176.32999	-651.46722	324.24567	213.02992	-596.20453	344.04330	174.06902	-733.13257	338.95923	162.34927	-443.98190	448.52118	146.21777	-450.54758	74.96627	142.94153	-806.37390	82.68980	140.72728	-800.03833	456.41266	144.67163	
